<?xml version="1.0" encoding="UTF-8"?>
<svg version="1.1" xmlns="http://www.w3.org/2000/svg" width="146" height="187">
<path d="M0 0 C60.39 0.495 60.39 0.495 122 1 C122 3.64 122 6.28 122 9 C124.64 9 127.28 9 130 9 C130 11.64 130 14.28 130 17 C132.64 17 135.28 17 138 17 C138 19.64 138 22.28 138 25 C140.64 25 143.28 25 146 25 C146 43.48 146 61.96 146 81 C143.36 81 140.72 81 138 81 C138 83.64 138 86.28 138 89 C135.36 89 132.72 89 130 89 C130 91.64 130 94.28 130 97 C132.64 97 135.28 97 138 97 C138 99.64 138 102.28 138 105 C140.64 105 143.28 105 146 105 C146 131.4 146 157.8 146 185 C127.52 185 109.04 185 90 185 C90 158.6 90 132.2 90 105 C79.44 105 68.88 105 58 105 C58 131.4 58 157.8 58 185 C39.52 185 21.04 185 2 185 C1.97494385 179.46686035 1.9498877 173.9337207 1.92407227 168.23291016 C1.84077228 149.99622171 1.7521146 131.75956227 1.66066074 113.52291298 C1.60531856 102.46092421 1.55183495 91.39893222 1.50268555 80.33691406 C1.45985588 70.69832508 1.413581 61.05975995 1.36312145 51.42120779 C1.33651069 46.31491745 1.31165738 41.20863187 1.29092598 36.102314 C1.27137749 31.30074053 1.24723911 26.49921249 1.21950912 21.69767952 C1.2101292 19.93116516 1.20245732 18.16464083 1.19658089 16.39811134 C1.18833567 13.99465626 1.17406355 11.59131191 1.15821838 9.18789673 C1.15724028 8.48167887 1.15626217 7.77546102 1.15525442 7.04784262 C1.1675673 3.40081937 1.1675673 3.40081937 0 0 Z M58 49 C58 54.28 58 59.56 58 65 C68.56 65 79.12 65 90 65 C90 59.72 90 54.44 90 49 C79.44 49 68.88 49 58 49 Z M114 57 C114 62.28 114 67.56 114 73 C116.64 73 119.28 73 122 73 C122 67.72 122 62.44 122 57 C119.36 57 116.72 57 114 57 Z M114 138 C114 142.95 114 147.9 114 153 C116.64 153 119.28 153 122 153 C122 148.05 122 143.1 122 138 C116.53915739 136.48534976 116.53915739 136.48534976 114 138 Z " fill="#189B53" transform="translate(0,0)"/>
<path d="M0 0 C60.39 0.495 60.39 0.495 122 1 C122 3.64 122 6.28 122 9 C124.64 9 127.28 9 130 9 C130 11.64 130 14.28 130 17 C132.64 17 135.28 17 138 17 C138 19.64 138 22.28 138 25 C140.64 25 143.28 25 146 25 C146 43.48 146 61.96 146 81 C143.36 81 140.72 81 138 81 C138 83.64 138 86.28 138 89 C135.36 89 132.72 89 130 89 C130 91.64 130 94.28 130 97 C132.64 97 135.28 97 138 97 C138 99.64 138 102.28 138 105 C140.64 105 143.28 105 146 105 C146 131.4 146 157.8 146 185 C127.52 185 109.04 185 90 185 C90 158.6 90 132.2 90 105 C79.44 105 68.88 105 58 105 C58 131.4 58 157.8 58 185 C39.52 185 21.04 185 2 185 C1.97494385 179.46686035 1.9498877 173.9337207 1.92407227 168.23291016 C1.84077228 149.99622171 1.7521146 131.75956227 1.66066074 113.52291298 C1.60531856 102.46092421 1.55183495 91.39893222 1.50268555 80.33691406 C1.45985588 70.69832508 1.413581 61.05975995 1.36312145 51.42120779 C1.33651069 46.31491745 1.31165738 41.20863187 1.29092598 36.102314 C1.27137749 31.30074053 1.24723911 26.49921249 1.21950912 21.69767952 C1.2101292 19.93116516 1.20245732 18.16464083 1.19658089 16.39811134 C1.18833567 13.99465626 1.17406355 11.59131191 1.15821838 9.18789673 C1.15724028 8.48167887 1.15626217 7.77546102 1.15525442 7.04784262 C1.1675673 3.40081937 1.1675673 3.40081937 0 0 Z M10 9 C10 64.44 10 119.88 10 177 C20.56 177 31.12 177 42 177 C42 150.6 42 124.2 42 97 C60.48 97 78.96 97 98 97 C98 123.4 98 149.8 98 177 C108.56 177 119.12 177 130 177 C130 153.24 130 129.48 130 105 C127.36 105 124.72 105 122 105 C122 102.36 122 99.72 122 97 C119.36 97 116.72 97 114 97 C114 94.36 114 91.72 114 89 C116.64 89 119.28 89 122 89 C122 86.36 122 83.72 122 81 C124.64 81 127.28 81 130 81 C130 62.52 130 44.04 130 25 C127.36 25 124.72 25 122 25 C122 22.36 122 19.72 122 17 C119.36 17 116.72 17 114 17 C114 14.36 114 11.72 114 9 C79.68 9 45.36 9 10 9 Z " fill="#1E3146" transform="translate(0,0)"/>
<path d="M0 0 C5.28 0 10.56 0 16 0 C16 52.8 16 105.6 16 160 C18.64 160 21.28 160 24 160 C24 162.64 24 165.28 24 168 C16.08 168 8.16 168 0 168 C0 112.56 0 57.12 0 0 Z " fill="#E5F478" transform="translate(10,9)"/>
<path d="M0 0 C18.48 0 36.96 0 56 0 C56 2.64 56 5.28 56 8 C58.64 8 61.28 8 64 8 C64 13.28 64 18.56 64 24 C61.36 24 58.72 24 56 24 C56 26.64 56 29.28 56 32 C37.52 32 19.04 32 0 32 C0 21.44 0 10.88 0 0 Z M16 8 C16 13.28 16 18.56 16 24 C26.56 24 37.12 24 48 24 C48 18.72 48 13.44 48 8 C37.44 8 26.88 8 16 8 Z " fill="#1E3046" transform="translate(42,41)"/>
<path d="M0 0 C0.99 0 1.98 0 3 0 C3 2.64 3 5.28 3 8 C5.64 8 8.28 8 11 8 C11 10.97 11 13.94 11 17 C13.31 17 15.62 17 18 17 C18.08126087 19.08268593 18.13930839 21.16628658 18.1875 23.25 C18.23970703 24.99023438 18.23970703 24.99023438 18.29296875 26.765625 C17.97839369 30.23853368 17.52058511 31.62630213 15 34 C14.01 34 13.02 34 12 34 C11.505 32.515 11.505 32.515 11 31 C8.69 31.33 6.38 31.66 4 32 C4.01160156 33.02996094 4.02320312 34.05992188 4.03515625 35.12109375 C4.11343317 45.45486972 3.72243187 55.6924453 3 66 C4.28261719 66.04125 5.56523438 66.0825 6.88671875 66.125 C7.60819092 66.14820313 8.32966309 66.17140625 9.07299805 66.1953125 C11.23078265 66.19383734 11.23078265 66.19383734 12.8125 64 C13.4003125 63.01 13.4003125 63.01 14 62 C14.99 62 15.98 62 17 62 C18.27861615 64.55723229 18.11336609 66.36737102 18.09765625 69.2265625 C18.09443359 70.2578125 18.09121094 71.2890625 18.08789062 72.3515625 C18.07951172 73.43179688 18.07113281 74.51203125 18.0625 75.625 C18.05798828 76.71296875 18.05347656 77.8009375 18.04882812 78.921875 C18.0370179 81.61460662 18.01908205 84.30731009 18 87 C10.74 87 3.48 87 -4 87 C-4 60.6 -4 34.2 -4 7 C-3.34 7 -2.68 7 -2 7 C-2 7.66 -2 8.32 -2 9 C0.41121859 7.04366025 0.41121859 7.04366025 0.125 3.375 C0.08375 2.26125 0.0425 1.1475 0 0 Z " fill="#199B53" transform="translate(111,89)"/>
<path d="M0 0 C2.64 0 5.28 0 8 0 C8 26.4 8 52.8 8 80 C5.36 80 2.72 80 0 80 C0 53.6 0 27.2 0 0 Z " fill="#DEF685" transform="translate(98,97)"/>
<path d="M0 0 C5.28 0 10.56 0 16 0 C16 52.8 16 105.6 16 160 C15.67 160 15.34 160 15 160 C14.67 107.86 14.34 55.72 14 2 C10.04 2 6.08 2 2 2 C2.33 56.45 2.66 110.9 3 167 C3.99 166.67 4.98 166.34 6 166 C8.57265818 165.92970879 11.11641431 165.90629168 13.6875 165.9375 C14.38939453 165.94201172 15.09128906 165.94652344 15.81445312 165.95117188 C17.54300538 165.96293073 19.27151365 165.98086546 21 166 C20.67 164.02 20.34 162.04 20 160 C21.32 160 22.64 160 24 160 C24 162.64 24 165.28 24 168 C16.08 168 8.16 168 0 168 C0 112.56 0 57.12 0 0 Z " fill="#D3F783" transform="translate(10,9)"/>
<path d="M0 0 C0.33 0 0.66 0 1 0 C1 55.44 1 110.88 1 168 C11.89 168 22.78 168 34 168 C33.67 168.66 33.34 169.32 33 170 C28.49767666 170.07417023 23.99570909 170.1286105 19.49291992 170.16479492 C17.96128139 170.17987936 16.42968602 170.20034978 14.89819336 170.22631836 C12.69634346 170.26271847 10.49506467 170.27972913 8.29296875 170.29296875 C7.60849167 170.30845261 6.92401459 170.32393646 6.21879578 170.33988953 C3.37855701 170.34089443 1.47073346 170.33087919 -0.89331055 168.66918945 C-2.84545773 165.72481921 -3.12614025 163.14793716 -3.13371277 159.72032166 C-3.13797775 158.84716309 -3.14224274 157.97400452 -3.14663696 157.0743866 C-3.14618378 156.11905533 -3.14573059 155.16372406 -3.14526367 154.17944336 C-3.14862228 153.1709433 -3.1519809 152.16244324 -3.15544128 151.12338257 C-3.16496338 147.77885719 -3.1668954 144.43438186 -3.16796875 141.08984375 C-3.17118178 138.76396158 -3.17454589 136.43807962 -3.17805481 134.11219788 C-3.18405016 129.22884656 -3.18589443 124.34551294 -3.18530273 119.4621582 C-3.18520139 113.22031739 -3.19882285 106.97859105 -3.21607494 100.73677731 C-3.22722628 95.92820216 -3.22922093 91.11965434 -3.22869301 86.31106758 C-3.22986958 84.01109996 -3.23427317 81.71113154 -3.24202538 79.41117668 C-3.25188309 76.18281073 -3.24892381 72.9546887 -3.24291992 69.72631836 C-3.24853943 68.78515671 -3.25415894 67.84399506 -3.25994873 66.87431335 C-3.23447294 61.45118063 -2.62485826 56.49434121 -1.45757389 51.19987202 C-0.91106907 48.57244793 -0.72326685 46.04798958 -0.68115234 43.36669922 C-0.66128265 42.38643768 -0.64141296 41.40617615 -0.62094116 40.39620972 C-0.60938995 39.37600739 -0.59783875 38.35580505 -0.5859375 37.3046875 C-0.56657135 36.23123077 -0.5472052 35.15777405 -0.5272522 34.05178833 C-0.46798967 30.65960364 -0.42128608 27.26738402 -0.375 23.875 C-0.33677107 21.55988192 -0.29771656 19.24477731 -0.2578125 16.9296875 C-0.16233271 11.28657892 -0.07713299 5.6433876 0 0 Z " fill="#213331" transform="translate(9,9)"/>
<path d="M0 0 C2.64 0 5.28 0 8 0 C8 18.48 8 36.96 8 56 C5.36 56 2.72 56 0 56 C0 58.64 0 61.28 0 64 C-1.98 64 -3.96 64 -6 64 C-4.02 63.505 -4.02 63.505 -2 63 C-2 60.69 -2 58.38 -2 56 C0.64 55.01 3.28 54.02 6 53 C6 44.75 6 36.5 6 28 C4.35 28.66 2.7 29.32 1 30 C1 35.94 1 41.88 1 48 C0.67 48 0.34 48 0 48 C0 42.72 0 37.44 0 32 C-2.64 32 -5.28 32 -8 32 C-8 37.28 -8 42.56 -8 48 C-8.33 48 -8.66 48 -9 48 C-9.06058594 46.96359375 -9.12117188 45.9271875 -9.18359375 44.859375 C-9.26803371 43.48957127 -9.35267997 42.11978025 -9.4375 40.75 C-9.47681641 40.06808594 -9.51613281 39.38617188 -9.55664062 38.68359375 C-9.76666472 35.35551959 -10.01934002 32.19744598 -11 29 C-11.66 29.66 -12.32 30.32 -13 31 C-14 30 -14 30 -14.25 27.625 C-14 25 -14 25 -12.93359375 23.31640625 C-9.91158167 21.25899601 -7.37400426 21.95308214 -3.8125 22.3125 C-1.90404297 22.49232422 -1.90404297 22.49232422 0.04296875 22.67578125 C1.01878906 22.78277344 1.99460937 22.88976562 3 23 C1.74458443 20.48916886 0.49936512 20.12874554 -2 19 C-2 18.34 -2 17.68 -2 17 C-3.98 17 -5.96 17 -8 17 C-8 14.03 -8 11.06 -8 8 C-5.36 8 -2.72 8 0 8 C0 5.36 0 2.72 0 0 Z " fill="#1F9951" transform="translate(122,25)"/>
<path d="M0 0 C0 0.99 0 1.98 0 3 C0.99 3 1.98 3 3 3 C3.66 1.68 4.32 0.36 5 -1 C5.33 -1 5.66 -1 6 -1 C6 10.22 6 21.44 6 33 C5.67 32.34 5.34 31.68 5 31 C4.01 31 3.02 31 2 31 C1.62875 31.9590625 1.62875 31.9590625 1.25 32.9375 C0 35 0 35 -1.8125 35.8125 C-4.38764878 36.03322704 -6.50222685 35.62444329 -9 35 C-9 34.34 -9 33.68 -9 33 C-6.36 33 -3.72 33 -1 33 C-1 28.05 -1 23.1 -1 18 C-3.31 18 -5.62 18 -8 18 C-9 17 -9 17 -9.09765625 13.40234375 C-9.0909822 11.91403133 -9.07902183 10.42573568 -9.0625 8.9375 C-9.05798828 8.17888672 -9.05347656 7.42027344 -9.04882812 6.63867188 C-9.0370068 4.75908129 -9.01907078 2.87953101 -9 1 C-3.375 -1.125 -3.375 -1.125 0 0 Z " fill="#1F9854" transform="translate(123,120)"/>
<path d="M0 0 C4.95 0 9.9 0 15 0 C15 0.33 15 0.66 15 1 C10.38 1 5.76 1 1 1 C1 55.78 1 110.56 1 167 C2.65 166.67 4.3 166.34 6 166 C8.61481958 165.93225856 11.19979256 165.90499742 13.8125 165.9375 C14.50537109 165.94201172 15.19824219 165.94652344 15.91210938 165.95117188 C17.60811068 165.96286844 19.30406703 165.98080076 21 166 C20.67 164.02 20.34 162.04 20 160 C21.32 160 22.64 160 24 160 C24 162.64 24 165.28 24 168 C16.08 168 8.16 168 0 168 C0 112.56 0 57.12 0 0 Z " fill="#DDF4A1" transform="translate(10,9)"/>
<path d="M0 0 C18.48 0 36.96 0 56 0 C56 2.64 56 5.28 56 8 C58.64 8 61.28 8 64 8 C64 13.28 64 18.56 64 24 C61.36 24 58.72 24 56 24 C56 26.64 56 29.28 56 32 C37.52 32 19.04 32 0 32 C0 21.44 0 10.88 0 0 Z M1 1 C1 10.9 1 20.8 1 31 C18.49 31 35.98 31 54 31 C54.33 28.69 54.66 26.38 55 24 C57.31 23.34 59.62 22.68 62 22 C62 20.68 62 19.36 62 18 C62 15 62 12 62 9 C60.02 9 58.04 9 56 9 C55.505 5.04 55.505 5.04 55 1 C37.18 1 19.36 1 1 1 Z " fill="#093C37" transform="translate(42,41)"/>
<path d="M0 0 C1.32 0 2.64 0 4 0 C4 2.64 4 5.28 4 8 C6.64 8 9.28 8 12 8 C12 9.98 12 11.96 12 14 C11.67 13.01 11.34 12.02 11 11 C8.88389843 11.96828501 8.88389843 11.96828501 7 14 C6.53701821 16.75258491 6.3290219 19.13407025 6.28515625 21.8984375 C6.24347069 23.08655533 6.24347069 23.08655533 6.20094299 24.29867554 C6.11548559 26.86559229 6.05736736 29.43231618 6 32 C5.94808908 33.71001142 5.89454404 35.41997403 5.83935547 37.12988281 C5.67911488 42.29438617 5.55613253 47.45940054 5.4375 52.625 C5.39413709 54.42188122 5.35051841 56.21875628 5.30664062 58.015625 C5.20149514 62.34368515 5.09975295 66.67181235 5 71 C4.67 71 4.34 71 4 71 C4 52.85 4 34.7 4 16 C1.36 16 -1.28 16 -4 16 C-4 13.36 -4 10.72 -4 8 C-6.64 8 -9.28 8 -12 8 C-12 5.69 -12 3.38 -12 1 C-11.67 1 -11.34 1 -11 1 C-11 2.98 -11 4.96 -11 7 C-7.535 6.505 -7.535 6.505 -4 6 C-2.23537317 9.08809695 -2 10.23312136 -2 14 C-1.34 13.67 -0.68 13.34 0 13 C0 10.36 0 7.72 0 5 C0.99 4.67 1.98 4.34 3 4 C3 3.01 3 2.02 3 1 C2.01 0.67 1.02 0.34 0 0 Z " fill="#1C3638" transform="translate(126,9)"/>
<path d="M0 0 C0.04630689 9.46618938 0.08186079 18.93233988 0.10362434 28.39861774 C0.11406888 32.79402474 0.12824027 37.18935435 0.15087891 41.5847168 C0.17258344 45.82517955 0.18456358 50.06556777 0.18975449 54.30608177 C0.19345454 55.92523561 0.20067969 57.54438529 0.21146011 59.16350746 C0.22594339 61.4285125 0.22797929 63.69320818 0.22705078 65.95825195 C0.231492 67.24842728 0.23593323 68.5386026 0.24050903 69.86787415 C0 73 0 73 -2 76 C-3.8918457 76.26464844 -3.8918457 76.26464844 -6.17578125 76.109375 C-7.00400391 76.05910156 -7.83222656 76.00882812 -8.68554688 75.95703125 C-9.55244141 75.88871094 -10.41933594 75.82039063 -11.3125 75.75 C-12.16779297 75.69714844 -13.02308594 75.64429688 -13.90429688 75.58984375 C-18.00822965 75.31646016 -21.98842067 74.95947052 -26 74 C-26 73.67 -26 73.34 -26 73 C-18.08 73 -10.16 73 -2 73 C-2 49.24 -2 25.48 -2 1 C-3.98 1 -5.96 1 -8 1 C-4.85571151 -0.9090323 -3.47925125 -1.04523725 0 0 Z " fill="#1B3540" transform="translate(132,104)"/>
<path d="M0 0 C28.38 0 56.76 0 86 0 C86 2.64 86 5.28 86 8 C88.64 8 91.28 8 94 8 C94 10.64 94 13.28 94 16 C91.36 16 88.72 16 86 16 C85.34 11.71 84.68 7.42 84 3 C80.36623704 1.78874568 77.00901987 1.82385607 73.22387695 1.79467773 C72.43339966 1.78477814 71.64292236 1.77487854 70.82849121 1.76467896 C68.21511838 1.73308607 65.60172737 1.70831526 62.98828125 1.68359375 C61.17652412 1.66302231 59.36477177 1.64202579 57.55302429 1.62062073 C52.78388336 1.56541965 48.01469926 1.51600169 43.2454834 1.46777344 C38.37911129 1.4175441 33.5128019 1.36186551 28.64648438 1.30664062 C19.09770982 1.19908306 9.54888082 1.09763272 0 1 C0 0.67 0 0.34 0 0 Z " fill="#258D61" transform="translate(28,9)"/>
<path d="M0 0 C2.64 0 5.28 0 8 0 C8 18.48 8 36.96 8 56 C5.36 56 2.72 56 0 56 C0 58.64 0 61.28 0 64 C-1.98 64 -3.96 64 -6 64 C-4.02 63.505 -4.02 63.505 -2 63 C-2 60.69 -2 58.38 -2 56 C0.64 55.01 3.28 54.02 6 53 C6.33 38.15 6.66 23.3 7 8 C4.69 8 2.38 8 0 8 C0 5.36 0 2.72 0 0 Z " fill="#2C9064" transform="translate(122,25)"/>
<path d="M0 0 C2.64 0 5.28 0 8 0 C8 5.61 8 11.22 8 17 C5.69 17 3.38 17 1 17 C0 16 0 16 -0.09765625 12.40234375 C-0.0909822 10.91403133 -0.07902183 9.42573568 -0.0625 7.9375 C-0.05798828 7.17888672 -0.05347656 6.42027344 -0.04882812 5.63867188 C-0.0370068 3.75908129 -0.01907078 1.87953101 0 0 Z " fill="#D3F5A3" transform="translate(114,121)"/>
<path d="M0 0 C18.48 0 36.96 0 56 0 C58 4 58 4 58 7 C58.78375 6.95875 59.5675 6.9175 60.375 6.875 C63 7 63 7 65 9 C65.265625 11.71484375 65.265625 11.71484375 65.25 14.9375 C65.25773437 16.52884766 65.25773437 16.52884766 65.265625 18.15234375 C65 21 65 21 63 24 C63 19.05 63 14.1 63 9 C60.36 9 57.72 9 55 9 C55 6.36 55 3.72 55 1 C36.85 1 18.7 1 0 1 C0 0.67 0 0.34 0 0 Z " fill="#2A9363" transform="translate(43,40)"/>
<path d="M0 0 C0.99 0.495 0.99 0.495 2 1 C2 1.66 2 2.32 2 3 C-27.7 3 -57.4 3 -88 3 C-88 2.67 -88 2.34 -88 2 C-86.94177536 1.98969254 -85.88355072 1.97938507 -84.79325867 1.96876526 C-74.83130517 1.8711032 -64.86941514 1.76837593 -54.90756512 1.66066074 C-49.78581084 1.60544398 -44.66405085 1.5520259 -39.54223633 1.50268555 C-34.60147387 1.4550237 -29.66078136 1.40268012 -24.72010231 1.34705925 C-22.83303374 1.32664397 -20.945946 1.30792952 -19.05884361 1.29092598 C-16.42026194 1.26686375 -13.78181256 1.23681156 -11.14331055 1.20532227 C-10.3592836 1.1995668 -9.57525665 1.19381134 -8.76747131 1.18788147 C-5.58884044 1.14462571 -3.03725341 1.0124178 0 0 Z " fill="#0D3D3B" transform="translate(114,6)"/>
<path d="M0 0 C2.64 0 5.28 0 8 0 C7.67 0.99 7.34 1.98 7 3 C6.01 2.67 5.02 2.34 4 2 C3.67 2.99 3.34 3.98 3 5 C2.34 5 1.68 5 1 5 C1.33 6.32 1.66 7.64 2 9 C0.865625 9.268125 -0.26875 9.53625 -1.4375 9.8125 C-2.613125 10.204375 -3.78875 10.59625 -5 11 C-5.33 11.99 -5.66 12.98 -6 14 C-5.05125 13.95875 -4.1025 13.9175 -3.125 13.875 C0 14 0 14 2 16 C1.625 19.125 1.625 19.125 1 22 C0.67 22 0.34 22 0 22 C0 20.02 0 18.04 0 16 C-2.64 16 -5.28 16 -8 16 C-8 13.36 -8 10.72 -8 8 C-5.36 8 -2.72 8 0 8 C0 5.36 0 2.72 0 0 Z " fill="#0E3D39" transform="translate(122,81)"/>
<path d="M0 0 C-0.33 23.76 -0.66 47.52 -1 72 C-1.33 72 -1.66 72 -2 72 C-2 48.57 -2 25.14 -2 1 C-3.98 1 -5.96 1 -8 1 C-4.59449725 -1.06762667 -4.18836538 -1.04709135 0 0 Z " fill="#0A3D33" transform="translate(132,104)"/>
<path d="M0 0 C1.98 0 3.96 0 6 0 C6 18.48 6 36.96 6 56 C4.68 55.67 3.36 55.34 2 55 C2.32531708 54.44213806 2.65063416 53.88427612 2.98580933 53.30950928 C4.13900003 50.68346991 4.24178273 48.90585011 4.22705078 46.04785156 C4.22689972 45.06713684 4.22674866 44.08642212 4.22659302 43.07598877 C4.21627045 42.02481873 4.20594788 40.97364868 4.1953125 39.890625 C4.1924826 38.80867859 4.18965271 37.72673218 4.18673706 36.61199951 C4.17554609 33.15788696 4.1504432 29.70403412 4.125 26.25 C4.11496881 23.90755583 4.1058432 21.56510759 4.09765625 19.22265625 C4.0756103 13.48168229 4.04214334 7.7408597 4 2 C2.68 2 1.36 2 0 2 C0 1.34 0 0.68 0 0 Z " fill="#222F3B" transform="translate(140,25)"/>
<path d="M0 0 C2.64 0 5.28 0 8 0 C8 2.64 8 5.28 8 8 C5.36 8 2.72 8 0 8 C0 5.36 0 2.72 0 0 Z " fill="#CDF0A9" transform="translate(114,49)"/>
<path d="M0 0 C2.64 0 5.28 0 8 0 C8 2.64 8 5.28 8 8 C5.36 8 2.72 8 0 8 C0 5.36 0 2.72 0 0 Z " fill="#CDF6A8" transform="translate(114,33)"/>
<path d="M0 0 C2.64 0 5.28 0 8 0 C8 2.64 8 5.28 8 8 C5.36 8 2.72 8 0 8 C0 5.36 0 2.72 0 0 Z " fill="#D7F2AE" transform="translate(122,25)"/>
<path d="M0 0 C2.64 0 5.28 0 8 0 C8 2.64 8 5.28 8 8 C5.36 8 2.72 8 0 8 C0 5.36 0 2.72 0 0 Z " fill="#D4F2AB" transform="translate(114,17)"/>
<path d="M0 0 C2.31 0 4.62 0 7 0 C7 2.64 7 5.28 7 8 C4.36 8 1.72 8 -1 8 C-0.01 7.67 0.98 7.34 2 7 C2 6.01 2 5.02 2 4 C1.34 3.67 0.68 3.34 0 3 C0 2.01 0 1.02 0 0 Z " fill="#26954B" transform="translate(115,25)"/>
<path d="M0 0 C8.25 0 16.5 0 25 0 C24.67 0.99 24.34 1.98 24 3 C20.93722733 2.85873374 17.87486458 2.71215604 14.8125 2.5625 C13.94818359 2.52318359 13.08386719 2.48386719 12.19335938 2.44335938 C8.04085878 2.23652984 4.05462138 1.99896469 0 1 C0 0.67 0 0.34 0 0 Z " fill="#0F3838" transform="translate(106,177)"/>
<path d="M0 0 C0.66 0 1.32 0 2 0 C2 0.99 2 1.98 2 3 C-1.06533164 4.53266582 -4.26754272 4.10276471 -7.625 4.0625 C-8.33140625 4.05798828 -9.0378125 4.05347656 -9.765625 4.04882812 C-11.51045275 4.03703875 -13.255237 4.01910324 -15 4 C-15 3.34 -15 2.68 -15 2 C-14.00097656 1.93941406 -13.00195312 1.87882813 -11.97265625 1.81640625 C-10.68230469 1.73261719 -9.39195313 1.64882812 -8.0625 1.5625 C-6.77472656 1.48128906 -5.48695312 1.40007813 -4.16015625 1.31640625 C-1.13976043 1.35080812 -1.13976043 1.35080812 0 0 Z " fill="#20312E" transform="translate(26,5)"/>
<path d="M0 0 C3.96 0.33 7.92 0.66 12 1 C12 1.33 12 1.66 12 2 C9.69 2.66 7.38 3.32 5 4 C5 5.65 5 7.3 5 9 C4.01 9.33 3.02 9.66 2 10 C1.77213542 7.98177083 1.54427083 5.96354167 1.31640625 3.9453125 C1.08707039 1.92595684 1.08707039 1.92595684 0 0 Z " fill="#313843" transform="translate(0,0)"/>
<path d="M0 0 C1.32 0 2.64 0 4 0 C4 2.31 4 4.62 4 7 C-1.94 7 -7.88 7 -14 7 C-14 6.67 -14 6.34 -14 6 C-9.05 6 -4.1 6 1 6 C0.67 4.02 0.34 2.04 0 0 Z " fill="#D4F78A" transform="translate(30,169)"/>
<path d="M0 0 C2.64 0 5.28 0 8 0 C8 0.66 8 1.32 8 2 C6.68 2 5.36 2 4 2 C3.71125 2.639375 3.4225 3.27875 3.125 3.9375 C2 6 2 6 0 7 C0 4.69 0 2.38 0 0 Z " fill="#28905B" transform="translate(98,65)"/>
<path d="M0 0 C2.31 0 4.62 0 7 0 C7 0.33 7 0.66 7 1 C5.02 1 3.04 1 1 1 C1.02320312 1.62648437 1.04640625 2.25296875 1.0703125 2.8984375 C1.09738281 4.12433594 1.09738281 4.12433594 1.125 5.375 C1.14820312 6.18710937 1.17140625 6.99921875 1.1953125 7.8359375 C1 10 1 10 -1 12 C-1.33 11.01 -1.66 10.02 -2 9 C-3.98 9 -5.96 9 -8 9 C-8 8.67 -8 8.34 -8 8 C-5.36 8 -2.72 8 0 8 C0 5.36 0 2.72 0 0 Z " fill="#269547" transform="translate(122,33)"/>
<path d="M0 0 C0.66 1.32 1.32 2.64 2 4 C3.32 4 4.64 4 6 4 C6 5.32 6 6.64 6 8 C4.02 8 2.04 8 0 8 C0 5.36 0 2.72 0 0 Z " fill="#269644" transform="translate(34,169)"/>
<path d="M0 0 C0.99 0 1.98 0 3 0 C3 2.64 3 5.28 3 8 C2.01 7.67 1.02 7.34 0 7 C0 4.69 0 2.38 0 0 Z " fill="#209568" transform="translate(111,89)"/>
<path d="M0 0 C2.31 0.66 4.62 1.32 7 2 C3.81237635 4.12508244 1.73487777 4.5020163 -2 5 C-1.34 3.35 -0.68 1.7 0 0 Z " fill="#133945" transform="translate(124,100)"/>
<path d="M0 0 C1.32 0 2.64 0 4 0 C4 1.65 4 3.3 4 5 C2.68 4.34 1.36 3.68 0 3 C0 2.01 0 1.02 0 0 Z " fill="#DCF599" transform="translate(117,50)"/>
</svg>
